# xmcd
#
# Track frame offsets:
# 156
# 12873
# 37265
# 53964
# 72598
# 86884
# 107813
# 120460
# 134610
# 147163
# 163326
# 178768
# 195876
#
# Disc length: 2845 seconds
#
#
# Revision: 0
# Processed by: cddbd v1.5PL3 Copyright (c) Steve Scherf et al.
# Submitted via: FreeRIP 2.53 
#
DISCID=c20b1b0d
DTITLE=Boyer Band - Connected
DYEAR=2002
DGENRE=Blues
TTITLE0=Her Shadow
TTITLE1=A Little Like That
TTITLE2=Wrap It Up
TTITLE3=Little Green Men
TTITLE4=The Rules
TTITLE5=Mate of My Soul
TTITLE6=In My Dream
TTITLE7=Miss Wind
TTITLE8=Connected
TTITLE9=Am I There Yet?
TTITLE10=Container of Love
TTITLE11=Happenin' in Canada
TTITLE12=A Little Like That (radio edit)
EXTD=
EXTT0=
EXTT1=
EXTT2=
EXTT3=
EXTT4=
EXTT5=
EXTT6=
EXTT7=
EXTT8=
EXTT9=
EXTT10=
EXTT11=
EXTT12=
PLAYORDER=
